<?xml version="1.0" encoding="utf-8"?>
<svg xmlns="http://www.w3.org/2000/svg" xmlns:cc="http://creativecommons.org/ns#" xmlns:dc="http://purl.org/dc/elements/1.1/" xmlns:rdf="http://www.w3.org/1999/02/22-rdf-syntax-ns#" height="197" version="1.1" width="274" viewBox="0 0 274 197">
	<metadata>
		<rdf:RDF xmlns="">
			<cc:Work xmlns="" rdf:about="">
				<dc:format xmlns="">image/svg+xml</dc:format>
				<dc:type xmlns="" rdf:resource="http://purl.org/dc/dcmitype/StillImage"/>
				<dc:title xmlns=""/>
			</cc:Work>
		</rdf:RDF>
	</metadata>
	<path d="m221 170.91c-3.46-0.64442-5.3737-1.8087-8.2803-5.0377-2.0792-2.3098-4.4019-5.5888-5.1617-7.2868-2.7124-6.0619-3.2163-22.008-1.7092-54.087 0.95748-20.381 0.8356-22.014-2.8738-38.5-1.474-6.551-6.112-13.712-9.8131-15.152-3.4848-1.3554-11.581-0.48318-16.884 1.8189-4.6928 2.037-12.895 11.414-16.277 18.608-2.1362 4.5445-5.2892 17.21-4.9105 19.725 0.12421 0.825 0.29663 7.8 0.38317 15.5 0.24718 21.995 1.531 57.669 2.1664 60.201 0.31731 1.2643 0.19065 2.313-0.28147 2.3304-0.47213 0.0174-5.5346 0.22341-11.25 0.45768l-10.391 0.42596 0.74586-38.208c1.1857-60.739 0.85171-66.972-4.0397-75.392-3.8424-6.6143-7.4385-8.6272-15.177-8.4953-5.425 0.09244-7.4047 0.63797-11.648 3.2095-7.394 4.4812-12.953 13.361-15.244 24.348-0.79999 3.8368-1.7235 7.4111-2.0522 7.943-0.86973 1.4073-1.503 52.559-0.9741 78.68l0.17212 8.5h-21l0.06692-5.5c0.03681-3.025 0.1825-9.55 0.32378-14.5s0.22173-27.333 0.17879-49.74c-0.066178-34.535-0.31687-41.337-1.6457-44.658-2.9249-7.3102-10.195-7.4436-15.296-0.28074-2.1594 3.0327-6.1067 15.951-6.1598 20.16-0.042239 3.347-2.1862 6.0201-4.8284 6.0201-2.3711 0-2.7168-1.8354-1.2433-6.6008 0.49303-1.5946 1.6743-5.5992 2.6251-8.8992s3.2262-9.2052 5.0566-13.123c2.9165-6.2419 3.8309-7.3239 7.3952-8.75 7.9465-3.1796 19.428-1.2479 26.283 4.422 3.1788 2.6291 6.9993 9.0199 8.9376 14.951 0.3227 0.98737 1.2347 0.04754 2.6684-2.75 1.198-2.3375 2.619-4.25 3.1579-4.25s0.97968-0.57247 0.97968-1.2722 1.3208-2.8746 2.9352-4.8331c2.1375-2.5932 5.1949-4.4556 11.25-6.8531 7.7653-3.0746 8.8664-3.2536 16.662-2.7087 9.1601 0.64026 14.498 3.1779 20.741 9.8612 3.9047 4.1797 8.4116 12.042 8.4116 14.675 0 1.1071 0.45 2.291 1 2.6309s1-0.06601 1-0.90207c0-1.6119 7.5842-11.378 11.919-15.348 4.84-4.4328 16.064-9.2495 21.553-9.2495 17.265 0 26.698 6.1813 33.1 21.688l2.3993 5.8119-0.036 43.162c-0.0302 36.227 0.20582 43.741 1.469 46.764 1.7688 4.2334 3.5859 5.1846 6.7102 3.5125 6.5641-3.513 9.737-10.163 9.8428-20.63 0.0432-4.2773 1.6496-6.5625 3.0362-4.3191 0.99269 1.6062 0.0416 18.21-1.1147 19.46-0.48348 0.5225-0.87906 1.7396-0.87906 2.7046s-1.1498 2.9043-2.555 4.3096c-4.783 4.783-13.341 6.957-21.445 5.4476zm-7-85.745c0-1.3021-1.1888-2.168-2.1558-1.5704-1.0342 0.63918-0.14245 2.4037 1.2148 2.4037 0.51754 0 0.94098-0.375 0.94098-0.83333zm-104 20.058c-3.0461-1.0884-8.3092-5.7542-10.62-9.4154-1.9076-3.0219-2.3797-5.1282-2.3797-10.618 0-6.0038 0.38718-7.433 3.1395-11.588 3.8415-5.7996 6.6682-7.7392 12.588-8.6376 7.1943-1.0918 11.237 0.29591 15.772 5.414 5.3034 5.9849 7.5759 12.336 6.3562 17.765-1.1798 5.2507-5.924 12.131-10.092 14.637-3.3041 1.986-12.011 3.4269-14.764 2.4433zm9.5-5.6498c2.8782-0.83997 6.532-7.0148 7.4-12.506 2.5671-16.239-14.795-25.81-20.917-11.53-1.0908 2.5448-1.9834 6.5263-1.9834 8.8477 0 5.7306 4.2657 14.177 7.8075 15.46 2.632 0.9533 3.6133 0.91863 7.6925-0.27185zm49.646 3.1409c-5.9003-3.0185-9.1455-9.0509-9.1455-17 0-6.7664 1.7195-10.686 6.9658-15.88 2.7677-2.7397 4.8764-3.84 8.361-4.3625 7.1867-1.0777 10.778 0.03859 15.455 4.8037 5.9286 6.0408 7.2834 14.912 3.6991 24.223-1.3184 3.4248-6.7625 8.5-9.1178 8.5-1.2346 0-2.5229 0.45-2.8628 1-1.0899 1.7634-8.8574 1.0166-13.354-1.284zm16.908-6.2725c3.3214-3.4278 3.4398-3.8142 3.2705-10.677-0.2729-11.063-3.951-16.789-10.749-16.733-7.4623 0.060914-11.576 5.9124-11.576 16.467 0 6.9126 1.6679 11.625 4.75 13.42 0.96251 0.56061 3.7992 1.033 6.3038 1.0497 3.9251 0.02621 5.0296-0.46062 8-3.5261z"/>
	<path d="m219.29 78.994c0.29396 2.9911 0.47536 5.9911 0.6341 8.9922l-10.97 5.6488c-0.0983-2.9706-0.23767-5.9439-0.64786-8.8907l10.983-5.7503z"/>
</svg>
