<?xml version="1.0" encoding="utf-8"?>
<svg xmlns="http://www.w3.org/2000/svg" version="1.1" viewBox="0 0 221 288">
	<title/>
	<path d="m113.24 261.6c0.2852-2.5303 0.26051-4.6006-0.0549-4.6006-0.31537 0-2.3021 1.198-4.415 2.6622-3.0356 2.1037-4.0959 2.4038-5.0538 1.4304-0.95285-0.96822-0.6119-1.7518 1.5936-3.6622 1.5432-1.3367 3.6807-2.4304 4.75-2.4304 3.0767 0 2.2614-1.8606-1.2094-2.76-1.7345-0.44946-3.8144-1.8123-4.622-3.0286-1.4054-2.1167-1.3399-2.2114 1.5312-2.2114 1.6497 0 3.5597 0.675 4.2444 1.5 2.395 2.8858 3.8468 1.7769 3.2732-2.5-0.4759-3.5481-0.30331-4 1.5278-4 2.5594 0 3.7046 3.1868 2.1734 6.0479-1.6329 3.051-0.50287 3.513 2.6078 1.0661 3.0435-2.394 7.4178-2.8283 7.4178-0.73644 0 1.8181-1.8809 3.3035-5.2556 4.1504-3.3646 0.84446-3.6668 3.472-0.3994 3.472 2.1358 0 5.655 2.6938 5.655 4.3287 0 1.6125-5.8443 0.4998-7.595-1.446l-1.905-2.1173-0.5 4.3583c-0.37278 3.2494-0.98123 4.4498-2.3914 4.7178-1.6905 0.32132-1.8363-0.12907-1.3728-4.2411zm-0.60906-50.131c-0.34372-0.89571-0.35155-2.7178-0.0174-4.0491 0.70558-2.8113-1.5605-3.3892-3.6093-0.92054-1.6745 2.0177-5 1.9247-5-0.13976 0-1.9631 2.8153-4.2842 5.25-4.3284 2.8102-0.0511 2.0163-2.043-1.2711-3.189-3.5515-1.2381-5.8363-4.5766-3.6945-5.3984 1.7623-0.67627 6.7156 1.1905 6.7156 2.5309 0 0.56361 0.45 1.0248 1 1.0248s1-1.8 1-4c0-3.2508 0.35277-4 1.8834-4 2.2041 0 3.5368 3.7889 1.9887 5.6542-2.2076 2.66 0.28058 3.182 3.7959 0.79639 4.0184-2.727 4.9125-2.9383 5.8709-1.3875 0.85673 1.3862-2.3754 4.937-4.4939 4.937-0.90475 0-2.1562 0.51119-2.781 1.136-0.84796 0.84796-0.0874 1.672 3 3.25 2.2748 1.1627 4.3085 2.6765 4.5193 3.364 0.5206 1.6978-2.6549 1.5655-6.1477-0.25616-1.5754-0.82161-3.0107-1.4938-3.1896-1.4938s-0.46499 1.6838-0.63569 3.7417c-0.33103 3.9908-3.025 5.7474-4.1836 2.728zm38.373-53.47c-0.76467-1.4288-0.7562-2.587 0.0297-4.0554 1.8821-3.5167 0.53518-4.2907-2.712-1.5584-3.3613 2.8284-6.3177 3.4221-6.3177 1.2688 0-1.8982 2.9731-4.2527 6.5-5.1476l3-0.76124-3.6332-1.6537c-4.1708-1.8984-6.8668-3.9458-6.8668-5.2149 0-1.2129 5.7386-1.1095 6.4967 0.11706 0.33809 0.54704 1.4327 1.4324 2.4325 1.9675 1.6601 0.88844 1.7741 0.58519 1.3143-3.4946-0.39869-3.5371-0.18959-4.4675 1.004-4.4675 2.4835 0 3.8073 2.4762 3.1311 5.8568-0.73357 3.6679-0.12518 3.8756 3.3485 1.1432 3.0208-2.3762 6.2729-2.617 6.2729-0.46446 0 0.87065-1.9762 2.3826-4.564 3.4919-4.8952 2.0983-5.0912 3.3403-0.70102 4.4422 3.3836 0.84922 5.265 2.3333 5.265 4.1528 0 2.0137-3.3433 1.682-6.2729-0.62244-1.3984-1.1-2.8091-2-3.1349-2s-0.59227 2.025-0.59227 4.5c0 4.9263-2.0244 6.1915-4 2.5zm-79.552-3.5c0.73513-4.9022-0.11856-5.6262-2.9477-2.5-2.1758 2.4043-6.5 2.6995-6.5 0.44377 0-0.89455 2.0155-2.4478 4.7404-3.6531 4.5891-2.03 4.6609-2.1266 2.25-3.0273-5.3804-2.01-7.491-3.409-7.8346-5.193-0.3108-1.6138 0.08655-1.7734 2.9929-1.2022 1.8432 0.3623 3.8509 1.3277 4.4615 2.1453 1.9873 2.6608 3.2974 1.692 2.6989-1.9958-0.4407-2.7157-0.1845-3.6283 1.1638-4.1457 2.4616-0.9446 3.5691 1.4275 2.8612 6.128l-0.60246 4 2.8842-2.6034c3.7951-3.4256 6.3037-4.2698 7.0339-2.367 0.84174 2.1936-1.3753 4.3283-5.2502 5.0552-1.8697 0.35076-3.3995 0.93682-3.3995 1.3023 0 0.36553 1.8936 1.5529 4.2081 2.6387 5.1259 2.4047 6.1046 4.4741 2.1158 4.4741-1.7598 0-3.3186-0.76193-4.0918-2-2.0257-3.2437-3.2321-2.3106-3.2321 2.5 0 3.9139-0.27527 4.5-2.1135 4.5-1.9382 0-2.0576-0.37323-1.4387-4.5zm1.3947-50.177c-0.25516-2.9533-0.18172-3.6993 0.60818-6.1777l0.75037-2.3543-3.8326 2.6043c-3.8423 2.6109-7.3684 3.4134-7.3684 1.6769 0-1.4641 5.0756-5.0726 7.1349-5.0726 3.0878 0 2.1176-1.4345-2.3849-3.5259-4.7127-2.189-5.8396-5.1522-1.7868-4.6981 1.3548 0.15179 3.4132 1.1684 4.5742 2.2591 2.6689 2.5073 3.5943 1.6412 2.2788-2.1327-1.7301-4.963 0.38977-7.5537 3.5748-4.3687 1.1603 1.1603 1.2995 2.1502 0.57143 4.0651-1.9431 5.1107-0.93635 5.6663 3.4431 1.8999 2.7676-2.3801 6.5945-3.379 6.5945-1.7213 0 1.7849-3.2479 5.2225-4.9343 5.2225-1.0015 0-2.3592 0.6487-3.0172 1.4415-0.99326 1.1968-0.52216 1.6231 2.7747 2.5109 4.0988 1.1037 6.2026 3.7167 3.7502 4.6578-1.6384 0.62873-7.5734-2.2206-7.5734-3.6359 0-0.53588-0.44661-0.97432-0.99247-0.97432-0.55052 0-0.8845 2.0985-0.75 4.7126 0.19566 3.8028-0.09539 4.7822-1.5075 5.0733-1.1227 0.23143-1.8065-0.29286-1.9075-1.4626zm79.695 0.73735c-0.3193-0.51663-0.2831-2.8791 0.0805-5.25l0.66093-4.3107-2.3895 2.1759c-2.711 2.4686-7.8895 4.113-7.8895 2.5051 0-1.5504 4.9998-5.181 7.1349-5.181 3.1361 0 2.0835-1.6109-2.1355-3.2681-3.8039-1.4942-5.9873-4.0773-4.6104-5.4542 0.34985-0.34985 2.3179 0.22032 4.3735 1.267 2.0556 1.0467 4.0869 2.0689 4.514 2.2714s0.47575-1.5129 0.1081-3.8121c-0.6375-3.9867-0.55765-4.1647 1.7234-3.8422 2.1307 0.30121 2.3712 0.80233 2.2026 4.5881-0.10413 2.3375 0.0559 4.25 0.35565 4.25 0.29973 0 1.882-1.125 3.516-2.5 3.1773-2.6735 5.2963-3.1525 6.3566-1.437 1.0598 1.7148-2.4839 4.8002-5.8937 5.1314-3.1713 0.30807-3.926 1.7969-1.4725 2.905 4.1497 1.8741 7.3189 3.8757 7.6342 4.8216 0.60132 1.804-4.1442 1.1619-6.807-0.92101-3.2641-2.5532-4.1832-2.4952-3.9609 0.25 0.37701 4.6543-0.0825 6.75-1.4801 6.75-0.79254 0-1.7022-0.4227-2.0215-0.93933zm-80.52-53.54c-0.90719-1.0931-0.95473-2.2617-0.18217-4.4779 1.3657-3.9178 0.04895-4.613-2.8641-1.5122-2.7557 2.9333-7.2922 3.4134-6.7944 0.71918 0.17783-0.9625 2.0108-2.5746 4.0733-3.5824 3.8547-1.8835 4.9321-3.6676 2.2148-3.6676-2.2495 0-6.4648-3.0092-6.4648-4.615 0-1.592 4.5541-1.9154 5.4967-0.39037 0.33809 0.54704 1.5361 1.4877 2.6622 2.0904 1.9459 1.0414 2.0141 0.89802 1.3737-2.892-0.71813-4.2506 0.17805-5.625 2.9693-4.5539 1.3877 0.5325 1.5624 1.4529 0.99738 5.2532l-0.68506 4.6076 2.3429-2.1351c2.7274-2.4855 6.3588-3.7821 7.9091-2.824 1.6372 1.0118-2.9913 5.4591-5.6816 5.4591-3.6697 0-3.6785 1.7479-0.01483 2.9571 1.8636 0.61503 4.1371 1.9457 5.0524 2.957 1.5238 1.6838 1.5279 1.8911 0.04848 2.4588-1.8073 0.69351-5.4707-0.91903-5.4707-2.408 0-0.53065-0.9-0.96482-2-0.96482-1.7037 0-2 0.66667-2 4.5 0 4.667-0.87825 5.5565-2.9827 3.0209zm79.373 0.05474c-0.33572-0.87488-0.31557-3.1623 0.0448-5.0832 0.74362-3.9638 0.09-4.3233-2.871-1.5791-3.0011 2.7814-6.0645 3.0777-6.0645 0.58665 0-1.3987 1.039-2.3358 3.4556-3.1169 3.797-1.2272 5.2947-3.3831 2.3502-3.3831-2.4886 0-6.3058-2.7584-6.3058-4.5567 0-2.0714 3.3046-1.7781 6.2729 0.5567 3.4347 2.7017 3.6159 2.5894 3.0177-1.8704-0.33997-2.5347-0.0822-4.1404 0.74686-4.6528 2.0715-1.2803 3.8766 2.2525 3.2492 6.3592l-0.55975 3.6639 2.9413-2.75c3.0868-2.8861 7.3319-3.6995 7.3319-1.405 0 1.9878-3.3398 4.655-5.8287 4.655-3.452 0-2.4749 2.3363 1.8013 4.3069 2.6758 1.2331 3.7415 2.2747 3.3558 3.2798-0.65417 1.7047-3.841 1.0438-6.5845-1.3655-2.2577-1.9827-3.0836-1.0839-3.1724 3.4526-0.0744 3.7997-2.1201 5.666-3.1808 2.9019z"/>
</svg>
